/* XPM */
static char *gnomeradio[] = {
/* columns rows colors chars-per-pixel */
"48 48 200 2 ",
"   c #8D0000",
".  c #9E0000",
"X  c #960D0D",
"o  c #990F0F",
"O  c #971312",
"+  c #9A1212",
"@  c #9A1817",
"#  c #A50101",
"$  c #A90404",
"%  c #AB0B0B",
"&  c #BD0101",
"*  c #BF0A0A",
"=  c #AD1212",
"-  c #AE1C1C",
";  c #B21010",
":  c #BB1313",
">  c #B41E1E",
",  c #B91F1F",
"<  c #972220",
"1  c #9B2524",
"2  c #9F2827",
"3  c #9E2D2C",
"4  c #A12A29",
"5  c #B12323",
"6  c #B92222",
"7  c #B42B2B",
"8  c #BB2C2C",
"9  c #BE3535",
"0  c #BB3A3A",
"q  c #C20606",
"w  c #C40B0B",
"e  c #CC0D0D",
"r  c #C31111",
"t  c #CB1414",
"y  c #C51D1D",
"u  c #CB1C1C",
"i  c #D41313",
"p  c #D81717",
"a  c #D41C1C",
"s  c #DC1A1A",
"d  c #E11E1E",
"f  c #CF2525",
"g  c #C52C2C",
"h  c #CB2A2A",
"j  c #D32424",
"k  c #DA2323",
"l  c #D62929",
"z  c #D92B2B",
"x  c #C23535",
"c  c #CA3434",
"v  c #C43D3D",
"b  c #CC3B3B",
"n  c #D53333",
"m  c #DA3131",
"M  c #D23D3D",
"N  c #DD3D3D",
"B  c #E52222",
"V  c #E92525",
"C  c #EC2B2B",
"Z  c #E33131",
"A  c #EC3333",
"S  c #E53E3E",
"D  c #ED3C3C",
"F  c #C25603",
"G  c #CB5D0A",
"H  c #946E6A",
"J  c #927A77",
"K  c #C04444",
"L  c #CC4444",
"P  c #C34C4C",
"I  c #CF4949",
"U  c #D24343",
"Y  c #DB4444",
"T  c #D44A4A",
"R  c #DD4D4D",
"E  c #CE5959",
"W  c #D25151",
"Q  c #DD5252",
"!  c #D05D5D",
"~  c #DC5D5D",
"^  c #E44343",
"/  c #EC4444",
"(  c #EE4A4A",
")  c #E15454",
"_  c #EF5353",
"`  c #E25A5A",
"'  c #E95A5A",
"]  c #F05656",
"[  c #F15C5C",
"{  c #DC6363",
"}  c #DD6A6A",
"|  c #D97171",
" . c #E36464",
".. c #EB6161",
"X. c #E46E6E",
"o. c #EA6B6B",
"O. c #F26565",
"+. c #F26B6B",
"@. c #E57474",
"#. c #E97272",
"$. c #E87E7E",
"%. c #F27272",
"&. c #F37C7C",
"*. c #C59E01",
"=. c #C4A000",
"-. c #D9C30B",
";. c #DCC613",
":. c #DFCA1A",
">. c #E1CB1B",
",. c #E2CE26",
"<. c #E7D226",
"1. c #E8D327",
"2. c #E7D129",
"3. c #E9D42B",
"4. c #EEDA35",
"5. c #EDD938",
"6. c #F0DC37",
"7. c #EBD848",
"8. c #F5E244",
"9. c #F7E248",
"0. c #FCE94F",
"q. c #FAE756",
"w. c #FAE854",
"e. c #FCEA59",
"r. c #F2E367",
"t. c #F9E862",
"y. c #F4E568",
"u. c #EFE27C",
"i. c #F1E371",
"p. c #8D8F8B",
"a. c #9D8E8A",
"s. c #8F908C",
"d. c #92948F",
"f. c #9D938F",
"g. c #939590",
"h. c #AA8F8C",
"j. c #B5928E",
"k. c #B79591",
"l. c #BC9793",
"z. c #B79B96",
"x. c #ABA19D",
"c. c #A4A6A1",
"v. c #ABABA7",
"b. c #ACADAA",
"n. c #B0ACA9",
"m. c #AEB0AC",
"M. c #B0B1AE",
"N. c #C09E9A",
"B. c #E28180",
"V. c #EA8383",
"C. c #EC8B8B",
"Z. c #F48383",
"A. c #F48C8C",
"S. c #E79292",
"D. c #E99696",
"F. c #E49998",
"G. c #F69494",
"H. c #F59B9B",
"J. c #F89E9E",
"K. c #C1A6A2",
"L. c #CDA6A4",
"P. c #D2AFAD",
"I. c #D4B0AF",
"U. c #D5B4B3",
"Y. c #D9BBB9",
"T. c #EFA2A2",
"R. c #F5A2A2",
"E. c #F9A6A6",
"W. c #F6AAAA",
"Q. c #F8ACAC",
"!. c #F7B5B5",
"~. c #F9B4B4",
"^. c #F7B9B9",
"/. c #F9BBBB",
"(. c #EEE48B",
"). c #F8EB82",
"_. c #EFE69D",
"`. c #FAEE96",
"'. c #FDF29C",
"]. c #C1C2BE",
"[. c #F5EEB8",
"{. c #CED0CB",
"}. c #D0D2CD",
"|. c #D9DAD6",
" X c #DBDBD8",
".X c #F6C0C0",
"XX c #FBC3C3",
"oX c #FBCCCC",
"OX c #FBD3D3",
"+X c #FCDADA",
"@X c #F9F5D0",
"#X c #FDF8D1",
"$X c #E5E5E2",
"%X c #E8E9E6",
"&X c #ECECEA",
"*X c #FDFAE7",
"=X c #FFFCEB",
"-X c #FFFEF4",
";X c #FFFFFF",
":X c None",
/* pixels */
":X:X:X:X:X:X:X:X:X:X:Xs.p.:X:X:X:X:X:X:X:X:X:X:X:X:X:X:X:X:X:X:X:X:X:X:X:Xp.p.:X:X:X:X:X:X:X:X:X",
":X:X:X:X:X:X:X:X:X:Xs.].|.p.:X:X:X:X:X:X:X:X:X:X:X:X:X:X:X:X:X:X:X:X:X:Xp. X].p.:X:X:X:X:X:X:X:X",
":X:X:X:X:X:X:X:X:X:Xp.|.&Xd.p.:X:X:X:X:X:X:X:X:X:X:X:X:X:X:X:X:X:X:X:Xp.g.&X Xp.:X:X:X:X:X:X:X:X",
":X:X:X:X:X:X:X:X:X:X:Xp.d.c.m.p.:X:X:X:X:X:X:X:X:X:X:X:X:X:X:X:X:X:Xs.b.c.g.p.:X:X:X:X:X:X:X:X:X",
":X:X:X:X:X:X:X:X:X:X:X:Xp.v.&Xm.p.:X:X:X:X:X:X:X:X:X:X:X:X:X:X:X:Xs.b.&Xb.p.:X:X:X:X:X:X:X:X:X:X",
":X:X:X:X:X:X:X:X:X:X:X:X:Xp.v.&Xm.s.:X:X:X:X:X:X:X:X:X:X:X:X:X:Xp.b.&Xb.p.:X:X:X:X:X:X:X:X:X:X:X",
":X:X:X:X:X:X:X:X:X:X:X:X:X:Xs.v.&Xb.p.:X:X:X:X:X:X:X:X:X:X:X:Xp.b.&Xb.s.:X:X:X:X:X:X:X:X:X:X:X:X",
":X:X:X:X:X:X:X:X:X:X:X:X:X:X:Xs.b.&Xb.p.:X:X:X:X:X:X:X:X:X:Xp.b.&Xb.s.:X:X:X:X:X:X:X:X:X:X:X:X:X",
":X:X:X:X:X:X:X:X:X:X:X:X:X:X:X:Xp.b.&Xb.s.:X:X:X:X:X:X:X:Xp.b.&Xb.s.:X:X:X:X:X:X:X:X:X:X:X:X:X:X",
":X:X:X:X:X:X:X:X:X:X:X:X:X:X:X:X:Xp.b.&Xb.s.:X:X:X:X:X:Xp.b.&Xm.p.:X:X:X:X:X:X:X:X:X:X:X:X:X:X:X",
":X:X:X:X:X:X:X:X:X:X:X:X:X:X:X:X:X:Xp.b.&Xb.s.:X:X:X:Xp.b.&Xm.p.:X:X:X:X:X:X:X:X:X:X:X:X:X:X:X:X",
":X:X:X:X:X:X:X:X:X:X:X:X:X:X:X:X:X:X:Xd.b.&Xv.H # # H v.&XM.p.:X:X:X:X:X:X:X:X:X:X:X:X:X:X:X:X:X",
":X:X:X:X:X:X:X:X:X:X:X:X:X:X:X:X:X:X:X:XJ v.].f./.!.f.].n.J :X:X:X:X:X:X:X:X:X:X:X:X:X:X:X:X:X:X",
":X:X:X:X:X:X:X:X:X$ % % $ # # # # # # # P x.f.F.A.&.B.h.h.8 # # # # # $ % % $ :X:X:X:X:X:X:X:X:X",
":X:X:X:X:X:X:X% % E S.W.^..XXXXXXXXX.X; .XG.&.Z.&.o.O.[ [ o.% XXXXXX.X/.W.F.! = % :X:X:X:X:X:X:X",
":X:X:X:X:X:X$ | .X/.~.Q.W.E.E.E.E.E.E.6 } H.H.H.G.A.&.+.' h 6 E.E.E.R.E.W.E.~.XX| % % :X:X:X:X:X",
":X:X:X:X:X= R./.E.E.E.E.E.E.E.E.E.R.R.C.9 = % $ # # $ % ; x V.G.G.G.G.G.G.G.A.G.E.R.8 $ :X:X:X:X",
":X:X:X:X% R.~.J.R.~.XXOX+X+X+X+X+X+X+XOXOXOXOXOXoXOXoXoXoXoXoXoXoXXXXX/.~.E.G.Z.&.G.H.> $ :X:X:X",
":X:X:X$ C.W.G.E.OXoX~.Q.E.E.E.R.R.J.R.J.J.J.J.J.J.J.H.H.H.H.G.G.G.G.G.G.G.H.Q.Q.A.%.Z.A.% :X:X:X",
":X:X:Xv R.A.!.oXR.H.H.H.G.H.G.G.G.G.G.G.@.~ T b b T ~ X.A.A.G.A.A.A.A.A.A.A.A.A.R.G.o.A.W $ :X:X",
":X:X$ C.Z./.Q.A.A.A.A.G.A.A.A.A.A.A.#.U T  .#.Z.Z.#. .T M o.Z.Z.Z.Z.Z.Z.Z.Z.Z.&.&.A.G.+.A.% :X:X",
":X:Xx G.~.E.A.Z.Z.Z.Z.Z.Z.Z.Z.Z.Z.b g 8 7 7 7 7 7 7 7 9 8 x b &.&.&.&.&.&.%.&.&.&.&.Z.Z.%.T $ :X",
":X% } G.Q.Z.&.&.&.&.&.&.&.&.&.&.` M Z.A.A.A.A.A.G.A.A.A.A.A.U ` %.%.%.%.%.%.+.%.+.+.%.&.+.#.$ :X",
":X$ Z.W.Z.%.%.&.%.%.%.%.%.+.%...h 5 7 7 7 7 7 7 7 7 5 7 7 7 5 g [ +.O.+.O.O.+.O.O.O.O.+.%.&.= :X",
":X> G.H.] ] _ ] ] [ [ O.O.O.+.Y R $.&.&.&.&.&.&.&.&.&.Z.&.Z.&.Q R O.[ [ [ [ ] [ [ [ [ [ +.%.8 :X",
":Xx Q.O.( ( / / ( ( ( ( ( ( / w % % % = - - - - 5 5 5 5 5 5 5 5 c +.] ] ] ] ] ] ] ( ] _ ] %.c :X",
":XW R./ / / / D / D / D D D D q ( ] _ _ _ ] ] ] _ ' [ ' [ O.O.O.y O.( ( ( _ ( ( ( / ( / ( +.T $ ",
"$ } Z.D A D A D A D A A A A A e $ # # # # # # # # # # # # # # $ w ] V V V V C V C A A A A ] R $ ",
"$ $.O.A A A C A C A C A C C C p k / / / / / ( ( ( ( ( ( ( _ _ j l ( V V V V V V V B V B B S ` $ ",
"$ A.( C C V C V V V V V V V V d & # # # # # # # # # # # # # # & ^ ^ B B B B d B B B B d B Z  .$ ",
"$ G.C V V V V V V V V V V V B B p w S S ^ / / ^ ^ ^ ^ ( ( ^ w z ..V d d d d d d d d d d s B o.# ",
"# H.V d V d V d d B k B s B d B d q & $ # # # # # $ . # $ & * ..Z s d s d s s s s s s s s s  .# ",
"# C.Z d d d d d d d d d d d d s s d a r u j z N N m l r q N  .S p p s p p s p p p p p p p k Q # ",
"$ @.S s d s s s s s s s s p s s p p s s j f u : q w u n ` ` z p p p p p i p p i p p i p i z U $ ",
"$ T ` s p s p p p p p p p p p p p p p p i k m N R Q R ^ m i i i i i i i i e i i i i e i e Y g # ",
":X6 @.p i p p z )  .^ l i i i i i i i i i i i i i i i i i i e t e i e j R { Y j e e e e i Q % :X",
":X# ~ R i i l  .6 o + 9 a i G *.=.=.=.=.=.=.=.=.=.=.=.=.=.=.=.=.*.G j { 6 + + 9 t e e e M b $ :X",
":X:X; X.l e R 6 4 U.I.2 6 e *.9.0.0.0.0.0.8.4.<.:.-.-.,.7.r.).'.`.*.T > 4 I.L.1 , q q f T $ :X:X",
":X:X# g { t { o U.%X XN.O e =.0.0.0.0.0.8.4.<.>.-.-.>.2.5.8.q.e.=X=.{ o Y.$X|.l.+ q w T : # :X:X",
":X:X:X# U T T o I. X{.k.X q =.0.0.0.0.8.6.3.,.;.-.:.2.5.8.q.e.e.;X=.b X U.|.{.k.X q b g # :X:X:X",
":X:X:X:X$ b { K 1 N.k.< % q *.8.w.e.t.y.i.u.(._.[.@X*X-X-X-X-X-X#X*.r 7 4 n.z.1 6 I g # :X:X:X:X",
":X:X:X:X:X# : W P @ X % & q F *.=.=.=.=.=.=.=.=.=.=.=.*.=.=.=.=.*.F & : > X O 0 L ; # :X:X:X:X:X",
":X:X:X:X:X:X# $ g I b y r * & & & & & & & & & & & & & & & & & & & & & w y c I g $ # :X:X:X:X:X:X",
":X:X:X:X:X:X:X:X# $ , x L I W T W W T W W W W T W T W W W W T W W W I L x , $ # :X:X:X:X:X:X:X:X",
":X:X:X:X:X:X:X:X:X:X  . # # # # # # # # # # # # # # # # # # # # # # # # .   :X:X:X:X:X:X:X:X:X:X",
":X:X:X:X:X:X:X:X:X:X:X:X:X:X:X:X:X:X:X:X:X:X:X:X:X:X:X:X:X:X:X:X:X:X:X:X:X:X:X:X:X:X:X:X:X:X:X:X",
":X:X:X:X:X:X:X:X:X:X:X:X:X:X:X:X:X:X:X:X:X:X:X:X:X:X:X:X:X:X:X:X:X:X:X:X:X:X:X:X:X:X:X:X:X:X:X:X",
":X:X:X:X:X:X:X:X:X:X:X:X:X:X:X:X:X:X:X:X:X:X:X:X:X:X:X:X:X:X:X:X:X:X:X:X:X:X:X:X:X:X:X:X:X:X:X:X"
};
